# xmcd
#
# Track frame offsets:
# 183
# 19828
# 31898
# 34660
# 35545
# 47475
# 64438
# 73170
# 89765
# 91395
# 106133
# 122008
# 133618
# 135733
# 153463
# 162795
# 173443
# 191520
# 193090
# 207690
# 222913
# 237450
# 239703
# 258128
#
# Disc length: 3538 seconds
#
#
# Revision: 0
# Processed by: cddbd v1.4PL0 Copyright (c) Steve Scherf et al.
# Submitted via: FreeRIP 2.12 
#
DISCID=5f0dd018
DTITLE=Nancy Harrow - Street Of Dreams
DYEAR=1990
DGENRE=Blues
TTITLE0=Street Of Dreams
TTITLE1=Good Morning Heartache
TTITLE2=Between The Devil And The Deep Blue Sea
TTITLE3=Street Of Dreams
TTITLE4=Between The Devil And The Deep Blue Sea
TTITLE5=Meantime
TTITLE6=I Can't Get Started
TTITLE7=Barney(Martha)
TTITLE8=Street Of Dreams
TTITLE9=You Go To My Head
TTITLE10=Innocent When You Dream
TTITLE11=Nobody Knows You When You're Down and Out
TTITLE12=Street Of Dreams
TTITLE13=Desperado
TTITLE14=Most Gentlemen Don't Like Love
TTITLE15=Why I was Born
TTITLE16=Fixing A Hole
TTITLE17=Street Of Dreams
TTITLE18=Maybe It's Because I love You Too Much
TTITLE19=Keeping Out Of Mischief
TTITLE20=You'r Gonna Make Me Lonesome When You Go
TTITLE21=Street Of Dreams(interlude)
TTITLE22=Sitting In Limbo
TTITLE23=Street Of Dreams(reprise)
EXTD=Sonet Records Ltd\nSNTCD 1032
EXTT0=
EXTT1=
EXTT2=
EXTT3=
EXTT4=
EXTT5=
EXTT6=
EXTT7=
EXTT8=
EXTT9=
EXTT10=
EXTT11=
EXTT12=
EXTT13=
EXTT14=
EXTT15=
EXTT16=
EXTT17=
EXTT18=
EXTT19=
EXTT20=
EXTT21=
EXTT22=
EXTT23=
PLAYORDER=
